<?xml version="1.0" encoding="UTF-8"?>
<svg xmlns="http://www.w3.org/2000/svg" xmlns:cc="http://creativecommons.org/ns#" xmlns:dc="http://purl.org/dc/elements/1.1/" xmlns:rdf="http://www.w3.org/1999/02/22-rdf-syntax-ns#" version="1.1" viewBox="0 0 81.741 72.524" xml:space="preserve">
  <title>CHARISMA project</title>
  <path d="m0.36334 38.542 33.456-18.386-33.456 20.386z" fill="#505050" stroke-width="1.5"/>
  <path d="m33.823 20.157 13.149 0.17098 0.15498 0.45508z" fill="#f00"/>
  <path d="m33.823 20.157 13.304 0.62606 0.17713 0.55161z" fill="#ff9300"/>
  <path d="m33.823 20.157 13.481 1.1777 0.19735 0.54945z" fill="#ffce00"/>
  <path d="m33.823 20.157 13.678 1.7271 0.18832 0.56757z" fill="#fcff00"/>
  <path d="m33.823 20.157 13.866 2.2947 0.20398 0.53768z" fill="#a0ff00"/>
  <path d="m33.823 20.157 14.07 2.8324 0.21477 0.61774z" fill="#06ff00"/>
  <path d="m33.823 20.157 14.285 3.4501 0.2263 0.57494z" fill="#00ffa2"/>
  <path d="m33.823 20.157 14.511 4.0251 0.23862 0.62388z" fill="#00f9ff"/>
  <path d="m33.823 20.157 14.75 4.6489 0.22056 0.6498z" fill="#0072ff"/>
  <path d="m33.823 20.157 14.971 5.2987 0.27303 0.74873z" fill="#1800ff"/>
  <path d="m33.823 20.157 15.244 6.0475 0.314 0.84305z" fill="#6300ff"/>
  <path d="m33.823 20.157 15.558 6.8905 0.29674 0.82467z" fill="#9f00ff"/>
  <path d="m33.823 20.157 15.854 7.7152 0.25148 0.74662z" fill="#e800ff"/>
  <path d="m46.963 20.328 33.396 15.215v2l-33.241-16.76z" fill="#f00"/>
  <path d="m47.123 20.783 33.241 16.76v2l-33.063-18.208z" fill="#ff9300"/>
  <path d="m47.303 21.335 33.063 18.208v2l-32.866-19.659z" fill="#ffce00"/>
  <path d="m47.493 21.884 32.866 19.659v2l-32.678-21.091z" fill="#fcff00"/>
  <path d="m47.683 22.452 32.678 21.091v2l-32.474-22.553z" fill="#a0ff00"/>
  <path d="m47.893 22.99 32.474 22.553v2l-32.259-23.936z" fill="#06ff00"/>
  <path d="m48.103 23.607 32.259 23.936v2l-32.033-25.361z" fill="#00ffa2"/>
  <path d="m48.333 24.182 32.033 25.361v2l-31.794-26.737z" fill="#00f9ff"/>
  <path d="m48.573 24.806 31.794 26.737v2l-31.574-28.087z" fill="#0072ff"/>
  <path d="m48.793 25.456 31.574 28.087v2l-31.301-29.338z" fill="#1800ff"/>
  <path d="m49.063 26.205 31.301 29.338h-2l-28.987-28.495z" fill="#6300ff"/>
  <path d="m49.363 27.029 29.004 28.514h-2l-26.69-27.671z" fill="#9f00ff"/>
  <path d="m49.613 27.776 26.752 27.767h-2l-24.438-26.924z" fill="#e800ff"/>
  <g fill="none">
    <path d="m22.363 55.543 18-54 19 54z" opacity=".91336" stroke="#1e798c"/>
    <path d="m23.363 54.543 17-50 18 50z" opacity=".86768" stroke="#5bbac7"/>
    <path d="m24.363 53.543 16-46 17 46z" opacity=".86768" stroke="#bee3e8"/>
  </g>
  <g transform="translate(-74.637,-4.4572)" fill="#30848e" aria-label="CHARISMA">
    <path d="m83.803 65.074v1.8027q-0.77863-0.80402-1.6588-1.2018-0.88019-0.39778-1.8704-0.39778-1.9466 0-2.9876 1.3288-1.0325 1.3203-1.0325 3.8254 0 2.4967 1.0325 3.8254 1.041 1.3203 2.9876 1.3203 0.99022 0 1.8704-0.39778 0.88019-0.39778 1.6588-1.2018v1.7858q-0.80402 0.60936-1.7096 0.91404t-1.9043 0.30468q-2.5898 0-4.0709-1.7519-1.4811-1.7604-1.4811-4.7987 0-3.0468 1.4811-4.7987 1.4811-1.7604 4.0709-1.7604 1.0156 0 1.9212 0.30468 0.90558 0.29622 1.6927 0.89712z"/>
    <path d="m86.182 64.1h1.5403v5.1796h5.5858v-5.1796h1.5403v12.636h-1.5403v-6.0175h-5.5858v6.0175h-1.5403z"/>
    <path d="m101.71 65.784-2.0905 6.2883h4.1894zm-0.87173-1.6842h1.7519l4.3332 12.636h-1.5996l-1.041-3.2415h-5.1288l-1.0325 3.2415h-1.625z"/>
    <path d="m113.97 70.812q0.49934 0.18619 0.96482 0.79556 0.46549 0.60936 0.93944 1.6757l1.5657 3.4531h-1.6588l-1.4557-3.2415q-0.55858-1.2695-1.0918-1.6842-0.52473-0.41471-1.4388-0.41471h-1.6758v5.3404h-1.5403v-12.636h3.47q1.955 0 2.9114 0.90558 0.95636 0.90558 0.95636 2.7337 0 1.1933-0.49933 1.9804-0.49088 0.78709-1.4472 1.0918zm-3.8508-5.3065v4.4856h1.9296q1.1172 0 1.6842-0.56705 0.56705-0.57551 0.56705-1.6842 0-1.1087-0.56705-1.6673-0.56704-0.56705-1.6842-0.56705z"/>
    <path d="m119.41 64.1h1.5403v12.636h-1.5403z"/>
    <path d="m130.82 64.515v1.6673q-0.87173-0.46549-1.6504-0.694-0.77863-0.22851-1.498-0.22851-1.261 0-1.9466 0.54166-0.67707 0.54166-0.67707 1.5403 0 0.83787 0.44856 1.2695 0.45702 0.42317 1.7265 0.68553l0.92251 0.21158q1.7265 0.36392 2.539 1.2864 0.82095 0.91404 0.82095 2.4544 0 1.8366-1.1087 2.7845-1.1002 0.9479-3.2415 0.9479-0.81248 0-1.7265-0.20312-0.90558-0.20312-1.8789-0.6009v-1.7604q0.93944 0.58397 1.8366 0.88019t1.7688 0.29622q1.3118 0 2.0312-0.57551 0.71939-0.57551 0.71939-1.6419 0-0.93097-0.51626-1.4557-0.51627-0.52473-1.6927-0.7871l-0.93097-0.20312q-1.7265-0.38085-2.4967-1.1933-0.7617-0.81248-0.7617-2.2597 0-1.6757 1.0579-2.6406 1.0664-0.96482 2.9283-0.96482 0.80402 0 1.6334 0.1608 0.82941 0.1608 1.6927 0.48241z"/>
    <path d="m133.91 64.1h2.2936l2.9029 8.5988 2.9114-8.5988h2.2936v12.636h-1.498v-11.095l-2.9368 8.6665h-1.5403l-2.9368-8.6665v11.095h-1.4896z"/>
    <path d="m151.16 65.784-2.0905 6.2883h4.1894zm-0.87173-1.6842h1.7519l4.3332 12.636h-1.5996l-1.041-3.2415h-5.1288l-1.0325 3.2415h-1.625z"/>
  </g>
  <metadata>
    <rdf:RDF>
      <cc:Work rdf:about="">
        <dc:title>CHARISMA project</dc:title>
        <dc:source>https://www.h2020charisma.eu/</dc:source>
        <dc:publisher>
          <cc:Agent>
            <dc:title>CHARISMA project</dc:title>
          </cc:Agent>
        </dc:publisher>
        <dc:description>The new EU-funded CHARISMA project is set to harmonise Raman Spectroscopy for characterisation across the life cycle of a material, from product design and manufacture to lifetime performance and end-of-life stage.</dc:description>
      </cc:Work>
    </rdf:RDF>
  </metadata>
</svg>
