<?xml version="1.0" encoding="utf-8"?>
<!-- Generator: Adobe Illustrator 16.0.0, SVG Export Plug-In . SVG Version: 6.00 Build 0)  -->
<!DOCTYPE svg PUBLIC "-//W3C//DTD SVG 1.1//EN" "http://www.w3.org/Graphics/SVG/1.1/DTD/svg11.dtd">
<svg version="1.1" id="Layer_1" xmlns="http://www.w3.org/2000/svg" xmlns:xlink="http://www.w3.org/1999/xlink" x="0px" y="0px"
	 width="48px" height="48px" viewBox="0 0 48 48" enable-background="new 0 0 48 48" xml:space="preserve">
<g id="zXDtGm_1_">
</g>
<path fill="none" stroke="#333333" stroke-width="2" stroke-linejoin="round" stroke-miterlimit="10" d="M6.375,36.222
	c0,0,6.604-0.197,8.948-8.141c2.344-7.942,1.843-7.401,3.802-0.859c1.959,6.543,5.774,12.031,8.491,7.162
	c2.719-4.869,5.012-36.892,7.51-15.964c1.623,13.591,3.879,17.165,5.262,17.999c0.154,0.095,0.299,0.151,0.43,0.188h0.809"/>
<polygon fill="#B2B2B2" points="8,40 8,6 6,6 6,40 6,40 6,42 6,42 8,42 42,42 42,40 "/>
</svg>
